<svg width="218" height="34" viewBox="0 0 218 34" fill="none" xmlns="http://www.w3.org/2000/svg">
<path d="M26.143 26H16.515V24.811L19.415 22.81L17.356 17.822H7.931L5.872 22.665L10.686 24.55L9.961 26H0.942V24.811L3.842 22.578L11.73 4.134L15.529 2.655L23.91 22.897L26.868 24.55L26.143 26ZM12.745 6.599L8.656 16.169H16.689L12.745 6.599ZM38.8362 25.971C37.9468 26.1837 36.8545 26.29 35.5592 26.29C34.2252 26.29 33.0265 25.9613 31.9632 25.304C30.9192 24.6273 30.0975 23.7187 29.4982 22.578C28.8988 21.418 28.5992 20.142 28.5992 18.75C28.5992 17.242 29.0632 15.8403 29.9912 14.545C30.9385 13.2303 32.1178 12.1863 33.5292 11.413C34.9405 10.6203 36.3035 10.224 37.6182 10.224C39.5322 10.224 41.0208 10.9683 42.0842 12.457C43.1475 13.9457 43.6695 15.9467 43.6502 18.46H33.0072C33.1618 19.9293 33.5968 21.1183 34.3122 22.027C35.0468 22.9357 36.0328 23.39 37.2702 23.39C38.5655 23.39 40.4215 22.5297 42.8382 20.809L43.6792 22.143L38.8362 25.971ZM35.9652 13.008C34.0512 13.008 33.0458 14.3323 32.9492 16.981H39.2422C39.0875 16.0337 38.9135 15.299 38.7202 14.777C38.5462 14.2357 38.2368 13.8103 37.7922 13.501C37.3668 13.1723 36.7578 13.008 35.9652 13.008ZM56.3055 13.675C55.4548 13.675 54.5848 14.1197 53.6955 15.009V23.332L57.9005 24.55L57.1755 26H47.0545V24.811L49.6355 22.723V15.183L47.0545 13.617V12.428L52.4485 9.963L53.4345 13.385L56.3055 10.456C56.6535 10.3013 57.1562 10.224 57.8135 10.224C58.6062 10.224 59.2925 10.4173 59.8725 10.804C60.4525 11.1907 60.8778 11.732 61.1485 12.428L58.8865 15.27H57.4945C57.4365 14.7093 57.3108 14.313 57.1175 14.081C56.9435 13.8297 56.6728 13.704 56.3055 13.704V13.675ZM71.9997 10.224C73.3337 10.224 74.5324 10.5623 75.5957 11.239C76.659 11.8963 77.4807 12.7953 78.0607 13.936C78.66 15.0767 78.9597 16.343 78.9597 17.735C78.9597 19.243 78.486 20.6543 77.5387 21.969C76.6107 23.2837 75.441 24.3373 74.0297 25.13C72.6184 25.9033 71.2554 26.29 69.9407 26.29C68.6067 26.29 67.408 25.9613 66.3447 25.304C65.3007 24.6273 64.479 23.7187 63.8797 22.578C63.2804 21.418 62.9807 20.142 62.9807 18.75C62.9807 17.242 63.4447 15.8403 64.3727 14.545C65.32 13.2303 66.4994 12.1863 67.9107 11.413C69.322 10.6203 70.685 10.224 71.9997 10.224ZM70.3177 13.008C69.351 13.008 68.6164 13.3753 68.1137 14.11C67.6304 14.8447 67.3887 15.9273 67.3887 17.358C67.3887 19.1173 67.756 20.577 68.4907 21.737C69.2254 22.897 70.2694 23.477 71.6227 23.477C73.5947 23.477 74.5807 22.0173 74.5807 19.098C74.5807 17.358 74.2134 15.908 73.4787 14.748C72.744 13.588 71.6904 13.008 70.3177 13.008ZM100.265 26H94.32V23.883L91.594 26.058C90.9753 26.2127 90.2406 26.29 89.39 26.29C88.114 26.29 86.9636 25.9613 85.939 25.304C84.9336 24.6273 84.141 23.7187 83.561 22.578C83.0003 21.418 82.72 20.142 82.72 18.75C82.72 17.242 83.184 15.8403 84.112 14.545C85.0593 13.2303 86.2386 12.1863 87.65 11.413C89.0613 10.6203 90.4243 10.224 91.739 10.224C92.667 10.224 93.5273 10.485 94.32 11.007V5.671L91.739 3.902V2.713L96.988 0.682999H98.38V23.593L100.99 24.55L100.265 26ZM90.985 23.216C91.565 23.216 92.116 23.1483 92.638 23.013C93.16 22.8583 93.7206 22.5877 94.32 22.201V15.995C94.204 15.125 93.7786 14.4097 93.044 13.849C92.3286 13.2883 91.333 13.008 90.057 13.008C88.0656 13.008 87.07 14.4677 87.07 17.387C87.07 19.0497 87.4083 20.4417 88.085 21.563C88.7616 22.6843 89.7283 23.245 90.985 23.245V23.216ZM118.994 11.732L111.599 26.029L105.248 33.685L103.856 32.612C104.9 31.4327 105.703 30.3983 106.263 29.509C106.843 28.6197 107.249 27.7207 107.481 26.812C107.733 25.9227 107.868 24.898 107.887 23.738L104.378 15.212L101.623 13.588V12.399L107.162 9.963L108.264 14.342L111.657 22.607L115.514 14.777L111.512 11.964L112.237 10.514L118.994 10.543V11.732ZM139.725 26H133.78V16.43C133.78 15.4053 133.625 14.6997 133.316 14.313C133.006 13.907 132.465 13.704 131.692 13.704C131.112 13.704 130.532 13.8007 129.952 13.994C129.372 14.1873 128.714 14.5547 127.98 15.096V23.593L130.59 24.55L129.865 26H121.339V24.811L123.92 22.723V15.183L121.339 13.617V12.428L126.733 9.963L127.748 13.559L131.663 10.456C132.069 10.3013 132.629 10.224 133.345 10.224C134.717 10.224 135.81 10.63 136.622 11.442C137.434 12.2347 137.84 13.3173 137.84 14.69V23.593L140.45 24.55L139.725 26ZM158.242 26H152.297V23.477L149.02 26.058C148.633 26.2127 148.15 26.29 147.57 26.29C145.83 26.29 144.563 25.8647 143.771 25.014C142.997 24.144 142.611 23.1 142.611 21.882C142.611 21.1667 142.852 20.4707 143.336 19.794C143.838 19.098 144.544 18.4407 145.453 17.822H152.297V16.488C152.297 14.284 151.117 13.182 148.759 13.182C147.521 13.182 145.936 13.8297 144.003 15.125L143.133 13.82L147.251 10.543C148.063 10.3303 149.078 10.224 150.296 10.224C152.21 10.224 153.698 10.6783 154.762 11.587C155.825 12.4957 156.357 13.82 156.357 15.56V23.535L158.967 24.55L158.242 26ZM148.701 23.245C149.783 23.245 150.982 22.752 152.297 21.766V19.301H147.338C146.951 19.765 146.758 20.3257 146.758 20.983C146.758 21.621 146.932 22.1623 147.28 22.607C147.647 23.0323 148.121 23.245 148.701 23.245ZM188.479 26H182.534V16.285C182.534 15.3183 182.379 14.6513 182.07 14.284C181.78 13.8973 181.258 13.704 180.504 13.704C179.982 13.704 179.45 13.8007 178.909 13.994C178.387 14.1873 177.788 14.5547 177.111 15.096V23.622L179.634 24.55L178.909 26H173.051V16.285C173.051 15.3183 172.896 14.6513 172.587 14.284C172.297 13.8973 171.775 13.704 171.021 13.704C170.48 13.704 169.938 13.8007 169.397 13.994C168.875 14.1873 168.276 14.5547 167.599 15.096V23.622L170.151 24.55L169.426 26H160.958V24.811L163.539 22.723V15.183L160.958 13.617V12.428L166.352 9.963L167.367 13.53L171.079 10.456C171.446 10.3013 171.978 10.224 172.674 10.224C173.815 10.224 174.762 10.514 175.516 11.094C176.27 11.6547 176.763 12.4377 176.995 13.443L180.591 10.456C180.958 10.3013 181.49 10.224 182.186 10.224C183.539 10.224 184.612 10.63 185.405 11.442C186.217 12.2347 186.623 13.3173 186.623 14.69V23.593L189.204 24.55L188.479 26ZM199.788 26H191.262V24.811L193.843 22.723V14.951L191.262 13.182V11.993L196.511 9.963H197.903V23.593L200.513 24.55L199.788 26ZM195.786 1.234C196.462 1.234 197.023 1.47567 197.468 1.959C197.912 2.423 198.135 3.003 198.135 3.699C198.135 4.18233 197.97 4.64633 197.642 5.091C197.332 5.51633 196.936 5.85467 196.453 6.106C195.989 6.35733 195.534 6.483 195.09 6.483C194.413 6.483 193.852 6.251 193.408 5.787C192.963 5.323 192.741 4.743 192.741 4.047C192.741 3.54433 192.895 3.08033 193.205 2.655C193.533 2.22967 193.93 1.89133 194.394 1.64C194.877 1.36933 195.341 1.234 195.786 1.234ZM211.662 10.224C212.513 10.224 213.489 10.34 214.591 10.572C215.693 10.7847 216.495 11.0263 216.998 11.297V16.111H215.606C214.871 15.1443 214.021 14.3903 213.054 13.849C212.087 13.2883 211.092 13.008 210.067 13.008C209.255 13.008 208.636 13.385 208.211 14.139C207.786 14.8737 207.573 15.9467 207.573 17.358C207.573 19.0787 207.94 20.519 208.675 21.679C209.41 22.8197 210.473 23.39 211.865 23.39C213.044 23.39 214.707 22.665 216.853 21.215L217.723 22.549L213.373 25.971C212.522 26.1837 211.459 26.29 210.183 26.29C208.849 26.29 207.65 25.9613 206.587 25.304C205.543 24.6273 204.721 23.7187 204.122 22.578C203.523 21.418 203.223 20.142 203.223 18.75C203.223 17.242 203.658 15.8403 204.528 14.545C205.398 13.2303 206.49 12.1863 207.805 11.413C209.139 10.6203 210.425 10.224 211.662 10.224Z" fill="url(#paint0_linear_617_3914)"/>
<defs>
<linearGradient id="paint0_linear_617_3914" x1="-0.92323" y1="30.4228" x2="217.531" y2="30.4229" gradientUnits="userSpaceOnUse">
<stop stop-color="#FF5E57"/>
<stop offset="0.301658" stop-color="#FFE76D"/>
<stop offset="0.452171" stop-color="#FFFFEC"/>
<stop offset="0.572582" stop-color="#FFDDFF"/>
<stop offset="0.876953" stop-color="#FF5BFF"/>
<stop offset="1" stop-color="#0CFFFF"/>
</linearGradient>
</defs>
</svg>
